inDegrees=yes
name=ik_MT_2026-09-03_14h52_01210270-000-000_orientations
DataType=double
version=3
OpenSimVersion=4.5
endheader
time	pelvis_tilt	pelvis_list	pelvis_rotation	pelvis_tx	pelvis_ty	pelvis_tz	hip_flexion_r	hip_adduction_r	hip_rotation_r	knee_angle_r	knee_angle_r_beta	ankle_angle_r	subtalar_angle_r	mtp_angle_r	hip_flexion_l	hip_adduction_l	hip_rotation_l	knee_angle_l	knee_angle_l_beta	ankle_angle_l	subtalar_angle_l	mtp_angle_l	lumbar_extension	lumbar_bending	lumbar_rotation	arm_flex_r	arm_add_r	arm_rot_r	elbow_flex_r	pro_sup_r	wrist_flex_r	wrist_dev_r	arm_flex_l	arm_add_l	arm_rot_l	elbow_flex_l	pro_sup_l	wrist_flex_l	wrist_dev_l
0	0.1227452243879114	-0.01773998610307984	170.9754517151833	0	0.9399999999999999	0	0.08458513190751173	0.006333497747203165	0.01743560880600874	-0.06773191828755704	-0.00118214498280963	-0.001203091503950488	0	0	0.09731148936685362	0.007380222318588598	0.01538172520326278	-0.03225642304541162	-0.0005629807870586091	0.02019577086374973	0	0	0.232083551301589	0.001607910468384914	0.008850369019684791	-0.5404535912423744	-0.09007820333725008	-0.006677116518152243	0.8619113148809476	16.6870740865208	0	0	-0.5392367485627401	-0.10342311980576	-0.009593176581575678	0.8640120388852291	16.6870740865208	0	0
0.025	0.09344189962559146	-0.02932487339322805	170.9712603065705	0	0.9399999999999999	0	0.08841881096680444	-0.02679756379759102	0.01719523423857158	-0.007057304373831752	-0.0001231731976387608	0.0009894280591157367	0	0	0.1188834500310183	0.007132686929970221	-0.01122622922889861	-0.003556203733759429	-6.206746402581787e-05	-0.02069353560181618	0	0	0.05247404129423002	0.02048812715092596	-0.07146027076485355	-0.3666158782766725	-0.1278655995523121	0.07636662131857859	0.8434772429619541	22.27447444024022	0	0	-0.3711825484084746	-0.06501127963952422	-0.09434155215288534	0.8442226685323927	22.27447444024022	0	0
0.05	0.08702163727591987	-0.03634216169638733	171.0113503287519	0	0.9399999999999999	0	0.07525141569969544	-0.02961811732671112	-0.02140621527449829	-0.04778048984554304	-0.0008339268660204429	-0.02544484011811313	0	0	0.1007510720724785	0.01794646721590598	0.0167926316866788	-0.01917671149362608	-0.0003346967552688147	-0.02916706671467361	0	0	0.01861428306917361	0.008844757544447095	-0.1232121253220697	-0.3523606231015514	-0.1224642176986526	0.07805384691535226	0.8700666949558238	25.55281734506665	0	0	-0.3502066770940258	-0.06652178084992466	-0.09322605592374061	0.8679796237448305	25.55281734506665	0	0
0.075	0.09398672789717005	-0.0466753616530407	171.0231687540614	0	0.9399999999999999	0	0.07037542924106352	-0.0373376989259185	-0.03913380037597168	-0.05406136029453271	-0.0009435487352465273	-0.01484306350679794	0	0	0.1086583949446923	0.0223337000685526	0.04314853517164172	-0.02406383901158578	-0.0004199932214220298	-0.0192139208759418	0	0	0.08290400545699676	0.00497937252120836	-0.1922783981789188	-0.4054469924476206	-0.1351965502996658	0.1391469077395378	0.8456995397016115	28.62388252856898	0	0	-0.4057774821309899	-0.06073014175030883	-0.1580902425127799	0.8459552486797789	28.62388252856898	0	0
0.1	0.08767614510612219	-0.05193761632305462	171.0143971658819	0	0.9399999999999999	0	0.06114894568574828	-0.04032592355785166	-0.002558325286635645	-0.05009974961080203	-0.0008744055851332432	0.01687882230739782	0	0	0.0959010655208109	0.02837711621166653	0.03396074942606398	-0.02048023194737074	-0.0003574474790537494	0.01269910692956907	0	0	0.0169606929927219	0.01859810676422589	-0.2473652263150007	-0.3358415823800034	-0.1487047709063451	0.2049184600563949	0.8458762747021122	30.95223898419943	0	0	-0.3354001717309511	-0.02577570091004945	-0.2182257081013408	0.8440040374760596	30.95223898419943	0	0
0.125	0.1091663018451248	-0.05704901822242849	171.0457573138033	0	0.9399999999999999	0	0.09262233173710679	-0.04174959147336108	-0.03353068177386101	-0.05535004932294689	-0.0009660406018266814	-0.01551909072313077	0	0	0.130084918454143	0.0249173982161479	0.07796846294384197	-0.03104556833613725	-0.0005418473856184927	-0.01084741309511	0	0	-0.05344634913163671	0.04384303334209372	-0.2033041648533845	-0.2426276392582888	-0.1819448911103226	0.116763326991107	0.8419439140525899	33.22326454400694	0	0	-0.2468618838153895	-0.009610940725949665	-0.137800374274729	0.8459746882904736	33.22326454400694	0	0
0.15	0.08601379070445969	-0.05033400472463658	171.0176850594854	0	0.9399999999999999	0	0.09042760569035604	-0.02312588029378171	-0.02861923746508869	-0.04088236864537049	-0.000713531938875809	-0.0100602909461587	0	0	0.1136475777834565	0.01150781253567283	0.0407807850087236	-0.01994543379620917	-0.0003481134904824016	-0.0118775636805324	0	0	-0.1322971489087043	0.03443792131802462	-0.1890053279903197	-0.1853869036044368	-0.1836896098493522	0.1385405767568834	0.8441584183197766	34.89669716148364	0	0	-0.1869493434386948	-0.01548191489360035	-0.1542793792024316	0.8449538470024183	34.89669716148364	0	0
0.175	0.1020071953036804	-0.05452007037969812	171.0440532286804	0	0.9399999999999999	0	0.1006643571252623	-0.03917274402873156	-0.04747940469181838	-0.05718468895743112	-0.0009980611040360165	-0.01532786878155347	0	0	0.1305283466128884	0.02240705384227824	0.04412544767349083	-0.01950918363616947	-0.0003404994888273568	-0.01606405007433999	0	0	-0.237494444780007	0.05415421872952186	-0.2279533533235016	-0.06815555074022489	-0.1922092776099426	0.151346703893646	0.8467523002224785	36.48422528825754	0	0	-0.06672204166625907	0.004925055582924863	-0.1731265825839988	0.8454204139111624	36.48422528825754	0	0
